<svg xmlns="http://www.w3.org/2000/svg" data-name="Layer 1" viewBox="0 0 512 512"><g data-name="&lt;Group&gt;"><g data-name="&lt;Group&gt;"><path fill="#00efd1" d="M389.5,50H366V22.4c0-5.5-4.4-10.4-10-10.4H294.4A10.729,10.729,0,0,0,284,22.4V50H145V22.4A10.64,10.64,0,0,0,134.7,12H73.1A10.4,10.4,0,0,0,63,22.4V50H39.6A27.848,27.848,0,0,0,12,77.9V382.1A27.784,27.784,0,0,0,39.6,410H241V390H225V324h19V304H225V245H408v-2h9V77.9C417,62.7,404.7,50,389.5,50ZM304,32h42V94H304ZM83,32h42V94H83ZM39.6,70H63v33.7A10.309,10.309,0,0,0,73.1,114h61.6A10.483,10.483,0,0,0,145,103.7V70H284v33.7A10.64,10.64,0,0,0,294.4,114H356a10.225,10.225,0,0,0,10-10.3V70h23.5a7.708,7.708,0,0,1,7.5,7.9V146H32V77.9A7.858,7.858,0,0,1,39.6,70ZM397,166v59H324V166ZM32,225V166h73v59Zm73,20v59H32V245Zm20-79h80v59H125ZM32,382.1V324h73v66H39.6A7.793,7.793,0,0,1,32,382.1ZM205,390H125V324h80Zm0-86H125V245h80Zm20-138h79v59H225Z" data-name="&lt;Compound Path&gt;"/></g><g data-name="&lt;Group&gt;"><path fill="#00acea" d="M362.5,224.5C286.7,224.5,225,286.2,225,362s61.7,137.5,137.5,137.5S500,437.8,500,362,438.4,224.5,362.5,224.5Zm0,255.1A117.5,117.5,0,1,1,480,362.1C480.1,426.9,427.4,479.6,362.5,479.6Z" data-name="&lt;Compound Path&gt;"/><path fill="#00acea" d="M436.7,291H288.4A10.64,10.64,0,0,0,278,301.3v20a10.11,10.11,0,0,0,3.5,7.6L336,375.5v77.2a10.238,10.238,0,0,0,10.2,10,9.08,9.08,0,0,0,4.5-1.1l32.6-16.2a10.184,10.184,0,0,0,5.7-8.9v-61l54.5-46.6a10.11,10.11,0,0,0,3.5-7.6v-20A10.551,10.551,0,0,0,436.7,291ZM427,316.7l-54.5,46.6a10.11,10.11,0,0,0-3.5,7.6v59.5l-13,6.2V370.9a10.11,10.11,0,0,0-3.5-7.6L298,316.7V311H427Z" data-name="&lt;Compound Path&gt;"/></g></g></svg>